# xmcd
#
# Track frame offsets:
# 150
# 12963
# 32914
# 48777
# 69372
# 88569
# 107786
# 129351
#
# Disc length: 1944 seconds
#
# Revision: 0
# Processed by: cddbd v1.5.2PL0 Copyright (c) Steve Scherf et al.
# Submitted via: Audion 3.0.2 (http://www.panic.com/audion/)
#
DISCID=5c079608
DTITLE=Opal Fly and The Swatters (Viper Jazz Time) - No Regrets
DYEAR=1900
DGENRE=
TTITLE0=No Regrets
TTITLE1=Comes Love
TTITLE2=Stealin'
TTITLE3=Sugar
TTITLE4=Minnie the Frail
TTITLE5=Viper
TTITLE6=Arkansas Bound Blues
TTITLE7=Tango Till They're Sore
EXTD=
EXTT0=
EXTT1=
EXTT2=
EXTT3=
EXTT4=
EXTT5=
EXTT6=
EXTT7=
PLAYORDER=
